<?xml version="1.0" ?><svg viewBox="0 0 32 32" xmlns="http://www.w3.org/2000/svg"><title/><g data-name="14 thermometer" id="_14_thermometer"><path d="M12,19.53V6A4,4,0,0,0,4,6V19.53A6,6,0,0,0,8,30a6,6,0,0,0,4-10.47Zm-1.46,7.56A4,4,0,1,1,5.6,20.8,1,1,0,0,0,6,20V6a2,2,0,0,1,4,0V20a1,1,0,0,0,.4.8,4,4,0,0,1,.14,6.29Z"/><path d="M9,21.18V13a1,1,0,0,0-2,0v8.18a3,3,0,1,0,2,0ZM8,25a1,1,0,1,1,1-1A1,1,0,0,1,8,25Z"/><circle cx="8" cy="10" r="1"/><circle cx="8" cy="7" r="1"/><path d="M27,22H25.48a4.19,4.19,0,0,0-.61-1.46L26,19.46a1,1,0,0,0-1.41-1.41l-1.08,1.08A4.39,4.39,0,0,0,22,18.52V17a1,1,0,0,0-2,0v1.52a4.39,4.39,0,0,0-1.46.61l-1.08-1.08a1,1,0,0,0-1.41,1.41l1.08,1.08A4.19,4.19,0,0,0,16.52,22H15a1,1,0,0,0,0,2h1.52a4.19,4.19,0,0,0,.61,1.46l-1.08,1.08a1,1,0,0,0,0,1.41,1,1,0,0,0,.71.29,1,1,0,0,0,.7-.29l1.08-1.08a4.39,4.39,0,0,0,1.46.61V29a1,1,0,0,0,2,0V27.48a4.39,4.39,0,0,0,1.46-.61L24.58,28A1,1,0,0,0,26,28a1,1,0,0,0,0-1.41l-1.12-1.12A4.19,4.19,0,0,0,25.48,24H27a1,1,0,0,0,0-2Zm-8.6,1A2.6,2.6,0,1,1,21,25.6,2.61,2.61,0,0,1,18.4,23Z"/><path d="M19,9h1.14a4.17,4.17,0,0,0,.43,1l-.81.81a1,1,0,0,0,0,1.41,1,1,0,0,0,1.41,0l.81-.81a4.17,4.17,0,0,0,1,.43V13a1,1,0,0,0,2,0V11.86a4.17,4.17,0,0,0,1-.43l.84.85a1,1,0,0,0,.71.29,1,1,0,0,0,.71-.29,1,1,0,0,0,0-1.42L27.43,10a4.17,4.17,0,0,0,.43-1H29a1,1,0,0,0,0-2H27.86a4.17,4.17,0,0,0-.43-1l.81-.81a1,1,0,0,0-1.41-1.41L26,4.57a4.17,4.17,0,0,0-1-.43V3a1,1,0,0,0-2,0V4.14a4.17,4.17,0,0,0-1,.43l-.81-.81a1,1,0,0,0-1.41,1.41l.81.81a4.17,4.17,0,0,0-.43,1H19a1,1,0,0,0,0,2Zm5-3a2,2,0,1,1-2,2A2,2,0,0,1,24,6Z"/><circle cx="29" cy="15" r="1"/><circle cx="27" cy="17" r="1"/><circle cx="15" cy="17" r="1"/><circle cx="15" cy="14" r="1"/></g></svg>